<svg xmlns="http://www.w3.org/2000/svg" xmlns:xlink="http://www.w3.org/1999/xlink" width="32" height="32" viewBox="0 0 32 32">
  <defs>
    <style>
      .cls-1 {
        fill: #da4935;
        fill-rule: evenodd;
        filter: url(#filter);
      }
    </style>
    <filter id="filter" x="1210" y="5461" width="32" height="32" filterUnits="userSpaceOnUse">
      <feFlood result="flood" flood-color="#ebebeb"/>
      <feComposite result="composite" operator="in" in2="SourceGraphic"/>
      <feBlend result="blend" in2="SourceGraphic"/>
    </filter>
  </defs>
  <path id="google.svg" class="cls-1" d="M1226,5461a16.005,16.005,0,1,1-16,16A16,16,0,0,1,1226,5461Zm-1.35,7.27a6,6,0,0,1,2.43,4.78c0,2.62-1.43,3.86-2.87,5.03a2.538,2.538,0,0,0-.96,1.74,1.947,1.947,0,0,0,.89,1.52l1.23,1c1.51,1.31,2.88,2.51,2.88,4.96,0,3.33-3.12,6.7-9,6.7-4.96,0-7.36-2.45-7.36-5.07a5.127,5.127,0,0,1,2.64-4.32c2.12-1.35,4.99-1.53,6.53-1.63a3.8,3.8,0,0,1-1.02-2.41,3.306,3.306,0,0,1,.34-1.39,10.655,10.655,0,0,1-1.1.07,5.5,5.5,0,0,1-5.67-5.56,6.459,6.459,0,0,1,2.18-4.75,9.1,9.1,0,0,1,6.13-1.95h7.04l-2.18,1.28h-2.13Zm-2.42,15.73a6.445,6.445,0,0,0-.79-0.03,13.082,13.082,0,0,0-3.59.57,3.926,3.926,0,0,0-2.95,3.65c0,2.51,2.37,4.32,6.03,4.32,3.28,0,5.02-1.63,5.02-3.83,0-1.81-1.12-2.76-3.72-4.68h0Zm0.99-6.73a3.7,3.7,0,0,0,.85-2.59c0-2.55-1.47-6.52-4.31-6.52a3.146,3.146,0,0,0-2.39,1.17,4.191,4.191,0,0,0-.75,2.62c0,2.38,1.33,6.31,4.27,6.31a3.428,3.428,0,0,0,2.33-.99h0Zm8.69-10.27h2v8h-2v-8Zm-3,3h8v2h-8v-2Z" transform="translate(-1210 -5461)"/>
</svg>
