<svg xmlns="http://www.w3.org/2000/svg" xmlns:xlink="http://www.w3.org/1999/xlink" width="32" height="32" viewBox="0 0 32 32">
  <defs>
    <style>
      .cls-1 {
        fill: #4e9edc;
        fill-rule: evenodd;
        filter: url(#filter);
      }
    </style>
    <filter id="filter" x="1324" y="5461" width="32" height="32" filterUnits="userSpaceOnUse">
      <feFlood result="flood" flood-color="#ebebeb"/>
      <feComposite result="composite" operator="in" in2="SourceGraphic"/>
      <feBlend result="blend" in2="SourceGraphic"/>
    </filter>
  </defs>
  <path id="twitter.svg" class="cls-1" d="M1340,5461a16,16,0,1,1-16,16A16,16,0,0,1,1340,5461Zm9.9,10.2a6.844,6.844,0,0,1-2.12.64,4.034,4.034,0,0,0,1.62-2.23,6.977,6.977,0,0,1-2.35.98,3.523,3.523,0,0,0-2.69-1.28,3.876,3.876,0,0,0-3.69,4.04,4.63,4.63,0,0,0,.09.92,10.226,10.226,0,0,1-7.61-4.22,4.3,4.3,0,0,0-.5,2.03,4.141,4.141,0,0,0,1.64,3.36,3.467,3.467,0,0,1-1.67-.5v0.05a3.962,3.962,0,0,0,2.96,3.96,3.5,3.5,0,0,1-.97.14,3.26,3.26,0,0,1-.7-0.07,3.759,3.759,0,0,0,3.45,2.8,6.96,6.96,0,0,1-4.58,1.73,8.334,8.334,0,0,1-.88-0.05,9.83,9.83,0,0,0,5.66,1.81c6.79,0,10.5-6.15,10.5-11.49,0-.18,0-0.35-0.01-0.52a7.791,7.791,0,0,0,1.85-2.1" transform="translate(-1324 -5461)"/>
</svg>
