<svg xmlns="http://www.w3.org/2000/svg" viewBox="0 0 81 77" width="81" height="77">
	<style>
		tspan { white-space:pre }
		.shp0 { fill: #3b3b3b } 
	</style>
	<path id="Shape 3" class="shp0" d="M77.92 77L3.08 77C1.93 77 1 76.06 1 74.9L1 13.98C1 12.82 1.93 11.88 3.08 11.88L77.92 11.88C79.07 11.88 80 12.82 80 13.98L80 74.9C80 76.06 79.07 77 77.92 77ZM5.16 72.8L75.84 72.8L75.84 16.08L5.16 16.08L5.16 72.8ZM77.92 16.08L3.08 16.08C1.93 16.08 1 15.14 1 13.98L1 3.09C1 1.93 1.93 0.99 3.08 0.99L77.92 0.99C79.07 0.99 80 1.93 80 3.09L80 13.98C80 15.14 79.07 16.08 77.92 16.08ZM5.16 11.88L75.84 11.88L75.84 5.19L5.16 5.19L5.16 11.88ZM10.18 7.07C10.98 7.07 11.63 7.73 11.63 8.54C11.63 9.35 10.98 10.01 10.18 10.01C9.38 10.01 8.73 9.35 8.73 8.54C8.73 7.73 9.38 7.07 10.18 7.07ZM14.53 7.07C15.33 7.07 15.98 7.73 15.98 8.54C15.98 9.35 15.33 10 14.53 10C13.73 10 13.08 9.35 13.08 8.54C13.08 7.73 13.73 7.07 14.53 7.07ZM18.88 7.07C19.68 7.07 20.34 7.73 20.34 8.54C20.34 9.35 19.68 10.01 18.88 10.01C18.08 10.01 17.43 9.35 17.43 8.54C17.43 7.73 18.08 7.07 18.88 7.07ZM30.04 50.18C29.58 50.18 29.11 50 28.76 49.64L23.1 43.93C22.39 43.21 22.39 42.05 23.1 41.33L28.75 35.63C29.46 34.91 30.61 34.91 31.32 35.63C32.03 36.34 32.03 37.5 31.32 38.22L26.96 42.63L31.33 47.04C32.04 47.76 32.04 48.92 31.33 49.64C30.98 50 30.51 50.18 30.04 50.18ZM50.96 50.18C50.5 50.18 50.03 50 49.68 49.64C48.97 48.92 48.97 47.76 49.68 47.04L54.04 42.64L49.67 38.22C48.96 37.5 48.96 36.34 49.67 35.62C50.38 34.91 51.53 34.91 52.24 35.62L57.9 41.34C58.24 41.68 58.43 42.15 58.43 42.64C58.43 43.12 58.24 43.59 57.9 43.93L52.25 49.64C51.89 50 51.43 50.18 50.96 50.18ZM37.89 54.42C37.74 54.42 37.59 54.4 37.44 54.36C36.47 54.11 35.88 53.11 36.13 52.13L40.75 33.85C41 32.86 42 32.27 42.96 32.52C43.94 32.77 44.53 33.77 44.28 34.76L39.65 53.04C39.44 53.87 38.7 54.42 37.89 54.42Z" />
</svg>