<svg xmlns="http://www.w3.org/2000/svg" viewBox="0 0 80 92" width="80" height="92">
	<style>
		tspan { white-space:pre }
		.shp0 { fill: #3b3b3b } 
	</style>
	<path id="Shape 4" class="shp0" d="M22.76 38.11C22.35 38.11 21.95 37.96 21.65 37.66L18.55 34.58C17.94 33.97 17.94 32.98 18.55 32.38C19.16 31.77 20.16 31.77 20.77 32.38L22.76 34.35L27.84 29.3C28.46 28.69 29.45 28.69 30.06 29.3C30.67 29.91 30.67 30.89 30.06 31.5L23.87 37.66C23.56 37.96 23.16 38.11 22.76 38.11ZM55.31 35.04L36.64 35.04C35.77 35.04 35.07 34.34 35.07 33.48C35.07 32.62 35.77 31.92 36.64 31.92L55.31 31.92C56.18 31.92 56.88 32.62 56.88 33.48C56.88 34.34 56.18 35.04 55.31 35.04ZM22.76 64.79C22.35 64.79 21.95 64.64 21.65 64.34L18.55 61.26C17.94 60.65 17.94 59.66 18.55 59.06C19.16 58.45 20.16 58.45 20.77 59.06L22.76 61.03L27.84 55.98C28.46 55.37 29.45 55.37 30.06 55.98C30.67 56.59 30.67 57.58 30.06 58.18L23.87 64.34C23.56 64.64 23.16 64.79 22.76 64.79ZM55.31 61.72L36.64 61.72C35.77 61.72 35.07 61.02 35.07 60.16C35.07 59.3 35.77 58.6 36.64 58.6L55.31 58.6C56.18 58.6 56.88 59.3 56.88 60.16C56.88 61.02 56.18 61.72 55.31 61.72ZM22.76 78.14C22.35 78.14 21.95 77.98 21.65 77.68L18.55 74.6C17.94 73.99 17.94 73.01 18.55 72.4C19.16 71.79 20.16 71.79 20.77 72.4L22.76 74.37L27.84 69.32C28.46 68.71 29.45 68.71 30.06 69.32C30.68 69.93 30.67 70.92 30.06 71.53L23.87 77.68C23.56 77.98 23.16 78.14 22.76 78.14ZM55.31 75.06L36.64 75.06C35.77 75.06 35.07 74.36 35.07 73.5C35.07 72.64 35.77 71.94 36.64 71.94L55.31 71.94C56.18 71.94 56.88 72.64 56.88 73.5C56.88 74.36 56.18 75.06 55.31 75.06ZM22.76 51.45C22.35 51.45 21.95 51.3 21.65 51L18.55 47.92C17.94 47.31 17.94 46.32 18.55 45.72C19.16 45.11 20.16 45.11 20.77 45.72L22.76 47.69L27.84 42.64C28.46 42.03 29.45 42.03 30.06 42.64C30.68 43.25 30.67 44.23 30.06 44.84L23.87 51C23.56 51.3 23.16 51.45 22.76 51.45ZM55.31 48.38L36.64 48.38C35.77 48.38 35.07 47.68 35.07 46.82C35.07 45.96 35.77 45.26 36.64 45.26L55.31 45.26C56.18 45.26 56.88 45.96 56.88 46.82C56.88 47.68 56.18 48.38 55.31 48.38ZM77.89 11.41L59.42 11.41C59.2 8.22 56.53 5.72 53.28 5.72L47.3 5.72C47.25 2.57 44.67 0.01 41.48 0.01C38.3 0.01 35.7 2.57 35.67 5.72L29.68 5.72C26.44 5.72 23.77 8.22 23.55 11.41L3.08 11.41C1.92 11.41 0.99 12.34 0.99 13.48L0.99 88.92C0.99 90.07 1.92 91 3.08 91L77.89 91C79.05 91 79.98 90.07 79.98 88.92L79.98 13.48C79.98 12.34 79.05 11.41 77.89 11.41ZM27.71 11.84C27.71 10.76 28.59 9.88 29.68 9.88L36.22 9.88C38.23 9.88 39.86 8.26 39.86 6.27L39.86 5.79C39.86 4.9 40.59 4.17 41.48 4.17C42.38 4.17 43.11 4.9 43.11 5.79L43.11 6.27C43.11 8.26 44.75 9.88 46.74 9.88L53.28 9.88C54.38 9.88 55.26 10.76 55.26 11.84L55.26 16.1L27.71 16.1L27.71 11.84L27.71 11.84ZM75.8 86.84L5.17 86.84L5.17 15.56L23.53 15.56L23.53 18.18C23.53 19.33 24.46 20.26 25.62 20.26L57.35 20.26C58.51 20.26 59.44 19.33 59.44 18.18L59.44 15.56L75.79 15.56L75.79 86.84L75.8 86.84ZM41.48 10.14C42.59 10.14 43.49 11.03 43.49 12.14C43.49 13.24 42.59 14.13 41.48 14.13C40.37 14.13 39.47 13.24 39.47 12.14C39.47 11.03 40.37 10.14 41.48 10.14Z" />
</svg>