<svg xmlns="http://www.w3.org/2000/svg" viewBox="0 0 81 85" width="81" height="85">
	<style>
		tspan { white-space:pre }
		.shp0 { fill: #3b3b3b } 
	</style>
	<path id="Shape 2" class="shp0" d="M78.96 0.99L67.03 0.99C65.91 0.99 65.01 1.89 65.01 3.01L65.01 7.18L16.86 7.18L16.86 3.01C16.86 1.89 15.96 0.99 14.84 0.99L3.02 0.99C1.9 0.99 1 1.89 1 3.01L1 15.28C1 16.4 1.9 17.3 3.02 17.3L14.95 17.3C16.07 17.3 16.97 16.4 16.97 15.28L16.97 11.11L39.13 11.11C38.91 16.06 26.87 39.35 19.22 53.08C18.77 53.87 19 54.88 19.67 55.55C26.53 61.4 28.22 67.14 28.67 70.07L26.08 70.07C24.96 70.07 24.06 70.97 24.06 72.09L24.06 81.99C24.06 83.12 24.96 84.02 26.08 84.02L56.01 84.02C57.13 84.02 58.03 83.12 58.03 81.99L58.03 72.09C58.03 70.97 57.13 70.07 56.01 70.07L53.42 70.07C53.87 67.14 55.56 61.4 62.42 55.55C63.09 54.99 63.32 53.87 62.87 53.08C55.22 39.35 43.18 15.95 42.96 11.11L65.01 11.11L65.01 15.28C65.01 16.4 65.91 17.3 67.03 17.3L78.96 17.3C80.08 17.3 80.98 16.4 80.98 15.28L80.98 3.01C80.98 1.89 80.08 0.99 78.96 0.99ZM12.92 13.25L4.94 13.25L4.94 4.93L12.92 4.93L12.92 13.25ZM41.05 46.22C42.51 46.22 43.63 47.34 43.63 48.8C43.63 50.27 42.51 51.39 41.05 51.39C39.58 51.39 38.46 50.27 38.46 48.8C38.46 47.45 39.7 46.22 41.05 46.22ZM54.1 79.86L28.11 79.86L28.11 73.89L30.81 73.89L51.4 73.89L54.1 73.89L54.1 79.86ZM49.48 69.96L32.61 69.96C32.16 66.69 30.47 60.17 23.39 53.53C26.08 48.58 34.18 33.73 39.02 22.7L39.02 42.62C36.43 43.4 34.52 45.88 34.52 48.8C34.52 52.4 37.45 55.33 41.05 55.33C44.65 55.33 47.57 52.4 47.57 48.8C47.57 45.88 45.66 43.52 43.07 42.62L43.07 22.59C48.02 33.62 56.01 48.47 58.71 53.53C51.62 60.17 49.93 66.69 49.48 69.96ZM77.04 13.25L69.06 13.25L69.06 9.54C69.06 9.43 69.06 9.31 69.06 9.2C69.06 9.09 69.06 8.98 69.06 8.86L69.06 5.04L77.04 5.04L77.04 13.25Z" />
</svg>